<svg width="15" height="16" viewBox="0 0 15 16" fill="none" xmlns="http://www.w3.org/2000/svg">
<path fill-rule="evenodd" clip-rule="evenodd" d="M1.74509 0H4.97932C5.9431 0 6.72441 0.805887 6.72441 1.8V3.536C6.72441 4.53011 5.9431 5.336 4.97932 5.336H1.74509C0.781302 5.336 0 4.53011 0 3.536V1.8C0 0.805887 0.781302 0 1.74509 0ZM4.97932 4.136C5.29883 4.13169 5.55684 3.86557 5.56101 3.536V1.8C5.55684 1.47043 5.29883 1.20431 4.97932 1.2H1.74509C1.42557 1.20431 1.16757 1.47043 1.16339 1.8V3.536C1.16757 3.86557 1.42557 4.13169 1.74509 4.136H4.97932Z" fill="#763186"/>
<path fill-rule="evenodd" clip-rule="evenodd" d="M10.5403 0H13.2549C14.2187 0 15 0.805887 15 1.8V7.264C15 8.25811 14.2187 9.064 13.2549 9.064H10.5403C10.0769 9.06614 9.63178 8.87718 9.30406 8.53915C8.97634 8.20112 8.79315 7.74204 8.79523 7.264V1.8C8.79523 0.805887 9.57653 0 10.5403 0ZM13.2549 7.864C13.5762 7.864 13.8366 7.59537 13.8366 7.264V1.8C13.8324 1.47043 13.5744 1.20431 13.2549 1.2H10.5403C10.2191 1.2 9.95862 1.46863 9.95862 1.8V7.264C9.95651 7.42379 10.0171 7.57767 10.1267 7.69066C10.2362 7.80366 10.3854 7.86617 10.5403 7.864H13.2549Z" fill="#763186"/>
<path fill-rule="evenodd" clip-rule="evenodd" d="M10.5403 11.2H13.2549C14.2187 11.2 15 12.0059 15 13V14.2C15 15.1941 14.2187 16 13.2549 16H10.5403C9.57654 16 8.79524 15.1941 8.79524 14.2V13C8.79524 12.0059 9.57654 11.2 10.5403 11.2ZM13.2549 14.8C13.5744 14.7957 13.8324 14.5296 13.8366 14.2V13C13.8324 12.6704 13.5744 12.4043 13.2549 12.4H10.5403C10.2191 12.4 9.95863 12.6686 9.95863 13V14.2C9.95863 14.5314 10.2191 14.8 10.5403 14.8H13.2549Z" fill="#763186"/>
<path fill-rule="evenodd" clip-rule="evenodd" d="M1.74509 7.464H4.97932C5.9431 7.464 6.72441 8.26989 6.72441 9.264V14.2C6.72441 15.1941 5.9431 16 4.97932 16H1.74509C0.781302 16 0 15.1941 0 14.2V9.264C0 8.26989 0.781302 7.464 1.74509 7.464ZM4.97932 14.8C5.29883 14.7957 5.55684 14.5296 5.56101 14.2V9.264C5.55684 8.93443 5.29883 8.66831 4.97932 8.664H1.74509C1.42557 8.66831 1.16757 8.93443 1.16339 9.264V14.2C1.16757 14.5296 1.42557 14.7957 1.74509 14.8H4.97932Z" fill="#763186"/>
</svg>
