<svg width="16" height="14" viewBox="0 0 16 14" fill="none" xmlns="http://www.w3.org/2000/svg">
<path fill-rule="evenodd" clip-rule="evenodd" d="M0.0928882 0.579139C0.256743 0.225966 0.610681 0 1.00001 0H14.334C14.7233 0 15.0773 0.225966 15.2411 0.579139C15.405 0.932312 15.349 1.34848 15.0976 1.64575L10 7.67317V13C10 13.3466 9.82056 13.6684 9.52574 13.8507C9.23093 14.0329 8.86279 14.0494 8.5528 13.8944L5.8868 12.5614C5.54802 12.392 5.33401 12.0458 5.33401 11.667V7.67317L0.236466 1.64575C-0.0149459 1.34848 -0.0709666 0.932312 0.0928882 0.579139ZM3.15542 2L7.09756 6.66125C7.25024 6.84178 7.33401 7.07057 7.33401 7.307V11.049L8.00001 11.382V7.307C8.00001 7.07057 8.08379 6.84178 8.23647 6.66125L12.1786 2H3.15542Z" fill="#0B2027"/>
</svg>
