<svg width="15" height="12" viewBox="0 0 15 12" fill="none" xmlns="http://www.w3.org/2000/svg">
<path fill-rule="evenodd" clip-rule="evenodd" d="M1.40441 1.70258C1.51467 1.48459 1.74138 1.33333 2 1.33333H12.6667C12.9253 1.33333 13.152 1.48462 13.2623 1.70264L7.33339 5.85287L1.40441 1.70258ZM1.33333 3.28037V10C1.33333 10.3651 1.63486 10.6667 2 10.6667H12.6667C13.0318 10.6667 13.3333 10.3651 13.3333 10V3.28045L7.7157 7.2128C7.48615 7.37348 7.18063 7.37348 6.95108 7.2128L1.33333 3.28037ZM14.6667 2.01175V10C14.6667 11.1015 13.7682 12 12.6667 12H2C0.898477 12 0 11.1015 0 10V2C0 0.898477 0.898477 0 2 0H12.6667C13.7628 0 14.658 0.889787 14.6666 1.98399C14.6668 1.99325 14.6668 2.00251 14.6667 2.01175Z" fill="#0B2027"/>
</svg>
