<svg width="16" height="16" viewBox="0 0 16 16" fill="none" xmlns="http://www.w3.org/2000/svg">
<g clip-path="url(#clip0_811_76348)">
<path fill-rule="evenodd" clip-rule="evenodd" d="M12.7027 1.53154L12.7903 3.226C14.1634 4.74517 14.7088 6.89733 14.0271 8.92289C13.0046 11.9418 9.63515 13.5291 6.48968 12.4676C3.34421 11.4062 1.64001 8.09514 2.66253 5.07627C3.35395 3.04097 5.0971 1.65813 7.12267 1.29782L8.21336 0.0026249C4.79522 -0.0850197 1.58158 2.02819 0.422728 5.43659C-0.989324 9.62405 1.25048 14.1621 5.43794 15.5741C9.62541 16.9862 14.1634 14.7464 15.5755 10.5589C16.7246 7.17 15.4586 3.52788 12.7027 1.53154Z" fill="#0B2027"/>
<path fill-rule="evenodd" clip-rule="evenodd" d="M10.7461 6.53705L10.6876 4.1609L10.6389 2.79754L10.6097 1.60947C10.6097 1.60947 10.6195 1.03492 10.6 0.908318C10.6 0.879103 10.5902 0.859626 10.5805 0.84015V0.820673C10.561 0.78172 10.5221 0.752505 10.4831 0.733028C10.4344 0.713552 10.3857 0.72329 10.3468 0.742767C10.3468 0.742767 10.3371 0.742767 10.3371 0.752505C10.3176 0.762243 10.2981 0.771982 10.2786 0.791458C10.1812 0.888841 9.8404 1.34654 9.8404 1.34654L9.10029 2.27168L8.23358 3.33315L6.74363 5.18342C6.74363 5.18342 6.06195 6.03065 6.20802 7.08239C6.35409 8.13412 7.1429 8.64051 7.74667 8.84502C8.35044 9.04952 9.28532 9.11769 10.0352 8.37758C10.7655 7.62773 10.7461 6.53705 10.7461 6.53705Z" fill="#0B2027"/>
</g>
<defs>
<clipPath id="clip0_811_76348">
<rect width="16" height="16" fill="white"/>
</clipPath>
</defs>
</svg>
