<svg width="16" height="14" viewBox="0 0 16 14" fill="none" xmlns="http://www.w3.org/2000/svg">
<path fill-rule="evenodd" clip-rule="evenodd" d="M6 0C5.7771 0 5.56894 0.111401 5.4453 0.296867L4.30988 2H2C1.46957 2 0.960859 2.21071 0.585786 2.58579C0.210714 2.96086 0 3.46957 0 4V11.3333C0 11.8638 0.210714 12.3725 0.585786 12.7475C0.960859 13.1226 1.46957 13.3333 2 13.3333H14C14.5304 13.3333 15.0391 13.1226 15.4142 12.7475C15.7893 12.3725 16 11.8638 16 11.3333V4C16 3.46957 15.7893 2.96086 15.4142 2.58579C15.0391 2.21071 14.5304 2 14 2H11.6901L10.5547 0.296867C10.4311 0.111401 10.2229 0 10 0H6ZM5.22137 3.03647L6.35679 1.33333H9.64321L10.7786 3.03647C10.9023 3.22193 11.1104 3.33333 11.3333 3.33333H14C14.1768 3.33333 14.3464 3.40357 14.4714 3.52859C14.5964 3.65362 14.6667 3.82319 14.6667 4V11.3333C14.6667 11.5101 14.5964 11.6797 14.4714 11.8047C14.3464 11.9298 14.1768 12 14 12H2C1.82319 12 1.65362 11.9298 1.5286 11.8047C1.40357 11.6797 1.33333 11.5101 1.33333 11.3333V4C1.33333 3.82319 1.40357 3.65362 1.5286 3.52859C1.65362 3.40357 1.82319 3.33333 2 3.33333H4.66667C4.88957 3.33333 5.09772 3.22193 5.22137 3.03647ZM8 4C7.11595 4 6.2681 4.35119 5.64298 4.97631C5.01786 5.60143 4.66667 6.44928 4.66667 7.33333C4.66667 8.21739 5.01786 9.06523 5.64298 9.69036C6.2681 10.3155 7.11595 10.6667 8 10.6667C8.88406 10.6667 9.7319 10.3155 10.357 9.69036C10.9821 9.06523 11.3333 8.21739 11.3333 7.33333C11.3333 6.44928 10.9821 5.60143 10.357 4.97631C9.7319 4.35119 8.88406 4 8 4ZM9.41421 8.74755C9.03914 9.12262 8.53043 9.33333 8 9.33333C7.46957 9.33333 6.96086 9.12262 6.58579 8.74755C6.21071 8.37247 6 7.86377 6 7.33333C6 6.8029 6.21071 6.29419 6.58579 5.91912C6.96086 5.54405 7.46957 5.33333 8 5.33333C8.53043 5.33333 9.03914 5.54405 9.41421 5.91912C9.78929 6.29419 10 6.8029 10 7.33333C10 7.86377 9.78929 8.37247 9.41421 8.74755Z" fill="#763186"/>
</svg>
