<svg width="15" height="14" viewBox="0 0 15 14" fill="none" xmlns="http://www.w3.org/2000/svg">
<path fill-rule="evenodd" clip-rule="evenodd" d="M6 0C5.46957 0 4.96086 0.210714 4.58579 0.585786C4.21071 0.960859 4 1.46957 4 2V2.66667H2C1.46957 2.66667 0.960859 2.87738 0.585786 3.25245C0.210714 3.62753 0 4.13623 0 4.66667V11.3333C0 11.8638 0.210714 12.3725 0.585786 12.7475C0.960859 13.1226 1.46957 13.3333 2 13.3333H4.66667H10H12.6667C13.1971 13.3333 13.7058 13.1226 14.0809 12.7475C14.456 12.3725 14.6667 11.8638 14.6667 11.3333V4.66667C14.6667 4.13623 14.456 3.62753 14.0809 3.25245C13.7058 2.87738 13.1971 2.66667 12.6667 2.66667H10.6667V2C10.6667 1.46957 10.456 0.960859 10.0809 0.585786C9.70581 0.210714 9.1971 0 8.66667 0H6ZM9.33333 2.66667V2C9.33333 1.82319 9.2631 1.65362 9.13807 1.5286C9.01305 1.40357 8.84348 1.33333 8.66667 1.33333H6C5.82319 1.33333 5.65362 1.40357 5.5286 1.5286C5.40357 1.65362 5.33333 1.82319 5.33333 2V2.66667H9.33333ZM5.33333 4H9.33333V12H5.33333V4ZM4 4H2C1.82319 4 1.65362 4.07024 1.5286 4.19526C1.40357 4.32029 1.33333 4.48986 1.33333 4.66667V11.3333C1.33333 11.5101 1.40357 11.6797 1.5286 11.8047C1.65362 11.9298 1.82319 12 2 12H4V4ZM10.6667 12V4H12.6667C12.8435 4 13.013 4.07024 13.1381 4.19526C13.2631 4.32029 13.3333 4.48986 13.3333 4.66667V11.3333C13.3333 11.5101 13.2631 11.6797 13.1381 11.8047C13.013 11.9298 12.8435 12 12.6667 12H10.6667Z" fill="black"/>
</svg>
